<?xml version="1.0" encoding="utf-8"?>
<!-- Generator: Adobe Illustrator 14.0.0, SVG Export Plug-In . SVG Version: 6.00 Build 43363)  -->
<!DOCTYPE svg PUBLIC "-//W3C//DTD SVG 1.1//EN" "http://www.w3.org/Graphics/SVG/1.1/DTD/svg11.dtd">
<svg version="1.1" id="Layer_1" xmlns="http://www.w3.org/2000/svg" xmlns:xlink="http://www.w3.org/1999/xlink" x="0px" y="0px"
	 width="612px" height="792px" viewBox="0 0 612 792" enable-background="new 0 0 612 792" xml:space="preserve">
<g>
	<polygon fill-rule="evenodd" clip-rule="evenodd" fill="#FFFFFF" points="209,300 401.756,300 401.756,492.756 209,492.756 
		209,300 	"/>
	<path fill-rule="evenodd" clip-rule="evenodd" fill="#006BB6" d="M335.433,411.926c0,3.714-0.994,8.017-3.878,11.829h8.146v-59.491
		h-26.054v24.303C327.726,392.701,335.433,401.235,335.433,411.926L335.433,411.926z"/>
	<path fill-rule="evenodd" clip-rule="evenodd" fill="#006BB6" d="M290.389,386.442c5.887,0,11.351,1.308,15.54,2.355
		c-8.874-1.475-22.618,0.65-29.707,5.953v29.004h26.057v-33.006c5.637,0.969,9.908,3.133,12.515,4.794v28.211h5.654
		c-5.319,5.684-15.291,9.153-23.892,7.874v1.194c24.78,1.847,35.278-9.258,35.278-21.756c0-14.72-14.614-23.335-29.556-25.081
		v-21.723h-26.057v21.969c-16.885,3.2-33.399,12.685-33.399,28.38c0,24.157,35.715,39.123,66.833,39.123
		c47.236,0,83.597-21.58,83.597-51.875c0-36.68-52.507-62.842-93.732-62.842c-47.236,0-82.016,28.367-82.016,58.673
		c0,15.683,9.321,28.837,21.075,37.988l0.881-0.552c-9.304-7.31-17.694-18.699-17.694-34.349
		c2.45-33.164,45.696-51.839,84.173-51.839c27.215,0,76.12,5.935,76.12,48.938c0,22.442-25.359,51.622-78.651,51.622
		c-27.275,0-48.456-13.82-48.456-33.659C254.953,398.665,269.184,386.442,290.389,386.442L290.389,386.442z"/>
</g>
</svg>
